<svg width="317" height="317" viewBox="0 0 317 317" fill="none" xmlns="http://www.w3.org/2000/svg">
<g clip-path="url(#clip0_116_110)">
<g filter="url(#filter0_f_116_110)">
<path d="M27.7059 140.312C30.0686 134.205 28.4061 117.705 30.7437 101.929C31.9251 93.9554 36.6168 74.4466 45.9328 60.1967C52.0084 49.8486 71.5517 31.0862 101.12 38.8219C106.689 40.3487 110.233 41.0714 120.359 48.7053C121.878 49.5807 127.448 54.8124 127.448 56.8481C136.561 64.9909 162.382 83.8211 143.143 97.0531C142.805 103.5 141.118 116.596 137.067 117.41C135.211 119.615 132.078 123.836 131.498 124.535C129.474 126.977 133.925 137.23 135.789 141.76C136.336 143.089 135.948 144.444 134.673 145.108C132.77 146.1 129.994 146.988 127.448 146.419C126.097 146.249 123.802 146.928 125.422 150.999C125.76 152.696 125.119 156.088 119.853 156.088C120.359 158.294 120.359 162.399 116.309 161.178C115.296 161.517 114.167 162.704 113.777 165.249C112.765 171.865 102.537 171.582 96.0568 168.089C95.3817 171.142 94.6392 177.453 97.0694 178.267C99.4997 179.082 117.997 234.588 126.941 262.24L157.826 316.186H-23.937L-29.5063 280.775L-17.5896 255.904C-14.3583 249.16 -12.6809 241.777 -12.6809 234.299V227.967C-12.6809 223.497 -11.7797 219.094 -8.63729 215.914C-4.63457 211.863 1.33656 206.53 4.92226 199.856C8.69042 192.842 1.44694 180.417 6.44117 170.847C8.32031 167.247 11.0625 163.653 14.0395 159.936L27.7059 140.312Z" fill="url(#paint0_linear_116_110)"/>
</g>
<path fill-rule="evenodd" clip-rule="evenodd" d="M28.7571 124.083C28.5789 131.242 28.4315 137.16 27.2122 140.312L13.5458 159.936C10.5688 163.653 7.82666 167.247 5.94752 170.847C3.27105 175.976 4.10928 181.924 4.88377 187.421C5.55447 192.18 6.17737 196.601 4.42861 199.856C1.38671 205.518 -3.37196 210.215 -7.18919 213.982L-7.19103 213.984C-7.87276 214.657 -8.52444 215.3 -9.13094 215.914C-12.2733 219.094 -13.1745 223.497 -13.1745 227.967V234.299C-13.1745 241.777 -14.8519 249.16 -18.0833 255.904L-30 280.775L-24.4307 316.186H157.332L126.448 262.24C117.503 234.588 99.006 179.082 96.5758 178.267C94.1455 177.453 94.8881 171.142 95.5632 168.089C102.044 171.582 112.271 171.865 113.284 165.249C113.673 162.704 114.803 161.517 115.815 161.178C119.866 162.399 119.866 158.294 119.359 156.088C124.625 156.088 125.266 152.696 124.929 150.999C123.309 146.928 125.604 146.249 126.954 146.419C129.5 146.988 132.277 146.1 134.18 145.108C135.454 144.444 135.843 143.089 135.296 141.76C135.18 141.479 135.054 141.175 134.92 140.852C132.903 135.986 129.106 126.825 131.004 124.535C131.201 124.297 131.693 123.653 132.33 122.819L132.331 122.818C133.567 121.199 135.349 118.866 136.574 117.41C140.624 116.596 142.312 103.5 142.649 97.0531C159.995 85.1233 140.713 68.6429 130.071 59.5471C128.91 58.5543 127.851 57.6494 126.954 56.8481C126.954 54.8124 121.385 49.5807 119.866 48.7053C110.217 41.4311 106.544 40.4321 101.401 39.0332L101.399 39.0327C101.145 38.9637 100.888 38.8937 100.626 38.8219C71.0581 31.0862 51.5148 49.8486 45.4392 60.1967C36.1232 74.4466 31.4314 93.9554 30.2501 101.929C29.1187 109.564 28.9243 117.369 28.7571 124.083ZM129.494 124.535C127.494 123.357 123.094 120.2 121.494 117C122.879 120.523 126.417 126.963 129.494 124.535ZM60.9937 96C57.9937 100.167 56.6077 116.5 57.4937 129.5C58.3116 141.5 55.8615 150.5 47.9937 161.178C44.9937 165.249 40.4937 174.5 39.4937 186C40.827 180.624 53.4937 161.178 54.4937 159.936C56.4659 157.488 64.6711 145 60.9937 126C60.9677 125.866 60.937 125.715 60.9025 125.545C60.3293 122.728 58.7299 114.865 60.9937 96ZM25.5654 176.384C27.0641 173.5 29.1346 169.516 27.4937 166C27.8539 170.847 24.6046 173.989 23.0204 176.932C20.2229 182.127 18.4937 187.421 19.9937 197C21.8869 209.09 12.327 223.667 6.9937 229.5C23.0204 215.914 23.4937 202 21.9937 191.5C20.8601 183.565 23.3978 180.555 25.5654 176.384Z" fill="url(#paint1_linear_116_110)"/>
<g filter="url(#filter1_f_116_110)">
<path d="M119.581 177.287C149.171 184.849 147.629 212.505 140.051 225.558C141.2 224.643 146.598 224.401 149.453 224.401C153.795 224.401 165.494 228.056 168.186 228.472C170.317 228.802 175.781 230.406 179.831 234.07C183.881 237.735 182.531 245.436 181.35 248.829C184.557 257.99 191.071 276.413 191.476 276.82C191.881 277.227 192.657 290.561 192.995 297.177L210.209 321.096C189.113 319.061 145.504 315.295 139.833 316.516C134.162 317.737 123.969 297.347 119.581 286.998C116.746 287.406 111.311 278.347 108.949 273.766C107.733 273.766 106.417 270.034 105.911 268.168C102.67 268.982 95.4472 271.222 92.2406 272.24C85.4072 277.896 79.6708 275.333 75.1304 273.304L75.0263 273.257C71.4822 271.674 54.2679 262.061 47.1796 256.463C41.509 256.87 31.653 252.222 27.4338 249.847C25.4086 247.404 30.6404 248.151 33.5094 248.829L24.9023 243.74C20.4468 238.04 29.1215 241.704 34.0157 244.249L24.9023 237.124C23.2821 232.645 31.653 236.615 36.0409 239.159L29.9653 232.035C27.5351 226.742 35.3659 231.865 39.5851 235.088C41.7791 236.954 45.5594 239.261 43.1292 233.561C40.6989 227.861 43.8043 227.794 45.6607 228.472C45.1544 231.526 47.6859 234.07 47.6859 234.579C52.9515 238.651 54.2679 242.722 54.2679 244.249L62.3687 247.811C75.5326 247.811 83.1272 255.019 83.1272 253.409C83.1272 251.883 89.7091 246.115 93.2532 243.231C89.6078 244.452 88.3062 240.055 87.9687 236.832C85.5384 235.203 84.4246 234.796 85.4372 232.76C84.7557 232.76 83.7672 231.285 83.412 230.216L84.4246 225.635H83.1272C77.3363 223.6 82.3994 221.055 84.4246 215.457L82.9855 211.358C81.949 208.406 81.921 205.194 82.9057 202.225C83.1272 181.359 109.455 173.725 119.581 177.287Z" fill="url(#paint2_linear_116_110)"/>
</g>
<path fill-rule="evenodd" clip-rule="evenodd" d="M119.581 178.305C109.455 174.743 83.1272 182.377 82.9057 203.243C81.921 206.212 81.949 209.424 82.9855 212.376L84.4246 216.475C83.7696 218.285 82.7968 219.777 81.9762 221.035C80.2597 223.666 79.2093 225.276 83.1272 226.653H84.4246L83.412 231.234C83.7672 232.304 84.7557 233.778 85.4372 233.778C84.5324 235.597 85.3253 236.116 87.2379 237.367C87.4659 237.517 87.7098 237.676 87.9687 237.85C88.3062 241.073 85.4938 244 99.4938 245C100.494 245.071 103.698 248.314 101.994 249C96.4938 249.5 83.1272 253.267 83.1272 254.427C83.1272 254.955 82.3114 254.535 80.7512 253.733C77.5508 252.087 71.2183 248.829 62.3687 248.829L54.2679 245.267C54.2679 243.74 52.9515 239.669 47.6859 235.597C47.6859 235.461 47.5057 235.181 47.251 234.784C46.5512 233.694 45.2895 231.729 45.6607 229.49C43.8043 228.812 40.6989 228.879 43.1292 234.579C45.5594 240.279 41.7791 237.972 39.5851 236.106C35.3659 232.883 27.5351 227.76 29.9653 233.053L36.0409 240.178C31.653 237.633 23.2821 233.663 24.9023 238.142L34.0157 245.267C29.1215 242.722 20.4468 239.058 24.9023 244.758L33.5094 249.847C30.6404 249.169 25.4086 248.422 27.4338 250.865C31.653 253.24 41.509 257.888 47.1796 257.481C54.2679 263.079 71.4822 272.692 75.0263 274.276L75.1304 274.322C79.6708 276.351 83.1272 277 92.2406 273.258C95.4472 272.24 102.67 270.001 105.911 269.186C106.994 271 108.494 273 109.994 275C113.086 279.123 118.2 284.761 119.581 288.017C123.969 298.365 134.494 313 139.833 317.534C144.255 321.289 189.113 320.079 210.209 322.114L192.995 298.195C192.657 291.579 191.881 278.245 191.476 277.838C191.071 277.431 184.557 259.008 181.35 249.847C182.531 246.454 183.881 238.753 179.831 235.088C175.781 231.424 170.232 230.279 168.186 229.49C161.94 227.082 153.095 225.773 149.453 225.419C146.598 225.419 140.936 225.924 139.994 226.5C147.571 213.447 149.171 185.867 119.581 178.305ZM134.494 228.5C132.584 231.841 127.485 236.094 113.976 239.083C113.263 239.271 112.6 239.411 111.994 239.5C112.674 239.364 113.334 239.225 113.976 239.083C119.148 237.722 126.941 233.851 134.494 228.5ZM111.994 225.419C117.494 221.916 121.694 215.5 118.494 211.5C121.16 213.779 123.594 219.754 111.994 225.419Z" fill="url(#paint3_linear_116_110)"/>
<path fill-rule="evenodd" clip-rule="evenodd" d="M111.994 239.5C112.674 239.364 113.334 239.225 113.976 239.083C113.263 239.271 112.6 239.411 111.994 239.5Z" fill="url(#paint4_linear_116_110)"/>
<g filter="url(#filter2_f_116_110)">
<path d="M212.237 284.707C216.794 284.152 217.807 286.573 219.832 288.779C221.857 289.781 225.3 293.618 222.87 300.946C223.376 303.522 223.477 310.089 219.832 315.752H152.494L182.872 295.395C178.821 290.509 182.872 288.779 185.91 287.761C189.15 286.947 189.623 280.636 189.454 277.582L167.176 282.163C158.671 283.384 159.244 280.975 160.595 279.618C156.544 279.211 156.544 276.395 157.05 275.038C148.139 272.595 165.658 260.788 173.758 254.172H162.62C154.519 250.101 162.957 248.743 168.189 248.574C171.024 245.724 178.484 247.386 181.859 248.574C187.53 246.538 189.285 253.833 189.454 257.734C195.124 259.363 193.842 264.859 192.492 267.404C194.517 268.625 194.348 273.681 194.01 276.056C195.86 276.427 196.088 283.045 196.077 285.395C196.612 283.354 202.257 284.061 205.149 284.707C206.769 282.672 210.55 283.859 212.237 284.707Z" fill="url(#paint5_linear_116_110)"/>
</g>
<path d="M213.025 284.384C217.582 283.829 218.595 286.25 220.62 288.456C222.645 289.458 226.088 293.295 223.658 300.623C224.164 303.199 224.265 309.766 220.62 315.429H153.282L183.66 295.072C179.609 290.186 183.66 288.456 186.698 287.438C189.938 286.624 190.411 280.313 190.242 277.259L167.965 281.84C159.459 283.061 160.032 280.652 161.383 279.295C157.332 278.888 157.332 276.072 157.838 274.715C148.928 272.272 166.446 260.465 174.546 253.849H163.408C155.307 249.778 163.745 248.42 168.977 248.251C171.812 245.401 179.272 247.063 182.647 248.251C188.318 246.215 190.073 253.51 190.242 257.411C195.912 259.04 194.63 264.536 193.28 267.081C195.305 268.302 195.136 273.358 194.799 275.733C196.648 276.104 196.876 282.722 196.865 285.072C197.4 283.031 203.045 283.738 205.937 284.384C207.557 282.349 211.338 283.536 213.025 284.384Z" fill="url(#paint6_linear_116_110)"/>
</g>
<defs>
<filter id="filter0_f_116_110" x="-38.5063" y="28" width="205.332" height="297.186" filterUnits="userSpaceOnUse" color-interpolation-filters="sRGB">
<feFlood flood-opacity="0" result="BackgroundImageFix"/>
<feBlend mode="normal" in="SourceGraphic" in2="BackgroundImageFix" result="shape"/>
<feGaussianBlur stdDeviation="4.5" result="effect1_foregroundBlur_116_110"/>
</filter>
<filter id="filter1_f_116_110" x="14.6682" y="167.445" width="204.541" height="162.651" filterUnits="userSpaceOnUse" color-interpolation-filters="sRGB">
<feFlood flood-opacity="0" result="BackgroundImageFix"/>
<feBlend mode="normal" in="SourceGraphic" in2="BackgroundImageFix" result="shape"/>
<feGaussianBlur stdDeviation="4.5" result="effect1_foregroundBlur_116_110"/>
</filter>
<filter id="filter2_f_116_110" x="143.494" y="238" width="89.2119" height="86.7518" filterUnits="userSpaceOnUse" color-interpolation-filters="sRGB">
<feFlood flood-opacity="0" result="BackgroundImageFix"/>
<feBlend mode="normal" in="SourceGraphic" in2="BackgroundImageFix" result="shape"/>
<feGaussianBlur stdDeviation="4.5" result="effect1_foregroundBlur_116_110"/>
</filter>
<linearGradient id="paint0_linear_116_110" x1="38.3383" y1="84.33" x2="115.475" y2="277.448" gradientUnits="userSpaceOnUse">
<stop stop-color="#CDABF2"/>
<stop offset="1" stop-color="#3E0B71"/>
</linearGradient>
<linearGradient id="paint1_linear_116_110" x1="37.8446" y1="84.33" x2="114.981" y2="277.448" gradientUnits="userSpaceOnUse">
<stop stop-color="white"/>
<stop offset="1" stop-color="#CDABF2"/>
</linearGradient>
<linearGradient id="paint2_linear_116_110" x1="96.7973" y1="202.008" x2="203.161" y2="307.824" gradientUnits="userSpaceOnUse">
<stop stop-color="#CDABF2"/>
<stop offset="1" stop-color="#3E0B71"/>
</linearGradient>
<linearGradient id="paint3_linear_116_110" x1="96.7973" y1="203.026" x2="203.161" y2="308.842" gradientUnits="userSpaceOnUse">
<stop stop-color="white"/>
<stop offset="0.973958" stop-color="#CDABF2"/>
</linearGradient>
<linearGradient id="paint4_linear_116_110" x1="96.7973" y1="203.026" x2="203.161" y2="308.842" gradientUnits="userSpaceOnUse">
<stop stop-color="white"/>
<stop offset="0.973958" stop-color="#CDABF2"/>
</linearGradient>
<linearGradient id="paint5_linear_116_110" x1="176.796" y1="258.752" x2="211.992" y2="315.08" gradientUnits="userSpaceOnUse">
<stop stop-color="#CDABF2"/>
<stop offset="1" stop-color="#3E0B71"/>
</linearGradient>
<linearGradient id="paint6_linear_116_110" x1="177.584" y1="258.429" x2="212.78" y2="314.757" gradientUnits="userSpaceOnUse">
<stop stop-color="white"/>
<stop offset="1" stop-color="#CDABF2"/>
</linearGradient>
<clipPath id="clip0_116_110">
<rect width="225" height="278" fill="white" transform="translate(0 37)"/>
</clipPath>
</defs>
</svg>
