<svg width="317" height="317" viewBox="0 0 317 317" fill="none" xmlns="http://www.w3.org/2000/svg">
<g clip-path="url(#clip0_116_122)">
<g filter="url(#filter0_f_116_122)">
<path fill-rule="evenodd" clip-rule="evenodd" d="M-85.7837 226.955C-87.5484 224.724 -91.4969 221.414 -93.1733 226.03C-93.2625 227.702 -93.5884 231.05 -94.1779 231.061C-94.7673 231.073 -95.0214 237.999 -95.0747 241.46C-96.6472 242.685 -99.8007 244.705 -99.8352 242.988C-99.2062 237.606 -103.309 235.182 -105.079 238.798C-105.964 240.605 -106.093 250.702 -100.782 250.882C-99.7999 250.862 -97.6906 250.677 -97.1127 250.093C-96.5348 249.508 -92.4415 250.237 -90.4671 250.675C-89.7064 251.853 -87.2371 253.689 -83.446 251.608C-82.9476 251.956 -80.9237 252.416 -76.8148 251.475L-74.6044 251.43C-75.1801 253.351 -76.1018 257.618 -75.1832 259.317C-74.7302 260.156 -74.3102 261.435 -73.9676 262.703C-73.3768 264.888 -72.4192 266.982 -70.8474 268.611C-66.5329 273.083 -59.8891 279.183 -55.9709 280.052C-55.0617 280.159 -53.0399 281.207 -49.9131 282.828C-47.1115 284.28 -41.6237 282.921 -37.0532 285.028C-33.5812 286.629 -29.4809 284.371 -22.974 285.385C-27.649 288.661 -24.6823 290.876 -23.4722 292.431C-20.8634 294.938 -14.6541 299.815 -6.77142 295.934C3.08196 291.082 22.684 292.145 24.5577 292.107C25.7902 292.082 47.2159 290.425 57.0901 292.732C57.0901 292.732 63.379 294.005 67.46 294.443C76.6228 295.428 80.3117 297.384 91.0531 293.969C104.192 289.793 94.0442 280.478 92.6888 279.865C89.0468 278.219 90.1695 278.637 89.5301 278.649C90.2367 278.346 91.1054 278.033 92.0854 277.694C105.79 272.956 120.782 270.434 131.382 260.539C134.294 258.691 140.065 256.108 143.668 251.989C146.43 248.831 150.632 239.105 145.346 225.466C146.948 225.672 150.877 225.569 153.784 223.506C155.748 223.467 159.591 222.745 159.245 220.175C161.077 219.661 166.46 219.801 168.201 214.755C167.414 212.265 159.572 199.764 154.486 203.446C153.102 201.803 150.404 198.373 150.688 197.795C151.042 197.072 147.25 191.778 144.432 198.278C144.586 199.826 144.587 203.117 143.42 202.952C142.915 202.881 142.427 202.735 141.972 202.598C140.429 202.136 139.259 201.785 139.035 204.83L139.064 206.261C136.76 204.925 133.916 202.959 131.156 201.052C126.77 198.021 122.598 195.137 121.151 195.166C116.811 187.02 102.154 155.027 101.023 142.736C99.8917 130.445 94.7413 117.447 92.3075 112.484C91.6648 111.065 89.1124 107.537 84.0447 104.775C81.9721 99.4467 76.1859 87.8216 69.6216 83.9441C66.0581 81.8392 64.9466 76.5334 63.6118 70.1617C62.2923 63.8626 60.7544 56.5219 56.4136 50.2025C54.977 48.1112 53.7246 45.4713 52.3475 42.5684C48.6097 34.6889 43.9527 24.872 32.1966 18.8298C30.1858 17.7964 25.5988 16.9577 20.0394 19.0739C17.9231 17.6846 11.3915 17.8874 2.19616 29.8133C-6.9992 41.7392 -7.10337 56.1315 -6.00603 61.837C-5.88001 68.1134 -10.3425 74.9315 -14.3093 80.9924C-16.6747 84.6064 -18.8638 87.9511 -19.7988 90.7512C-21.2054 94.1204 -22.7214 103.052 -17.533 111.826C-21.0774 112.732 -28.7054 117.062 -30.862 127.128C-32.5233 134.882 -32.9663 140.573 -33.3679 145.732C-33.618 148.944 -33.852 151.95 -34.354 155.119C-35.6624 163.379 -39.9415 188.88 -47.9601 193.337C-51.5818 196.512 -60.3425 212.842 -64.9143 220.093C-67.4288 224.081 -74.7886 231.245 -78.3654 229.312C-80.229 228.276 -84.3216 226.353 -85.7837 226.955ZM-56.8659 235.479C-41.3894 228.009 -32.0347 215.569 -24.875 205.044C-20.9336 197.647 -15.2924 184.943 -12.3415 174.615C-12.0765 173.688 -11.8136 172.759 -11.5551 171.846C-10.7494 168.999 -9.98789 166.309 -9.34998 164.321C-8.21368 170.611 -6.61666 175.519 -5.07785 180.249C-2.7186 187.501 -0.496144 194.332 -0.28044 205.075C-0.0821034 214.954 -0.750638 230.809 -2.96582 230.615C-5.26964 230.413 -13.4069 231.337 -23.0624 232.434C-34.6223 233.747 -48.3584 235.308 -56.8659 235.479ZM81.6359 224.955C89.9731 222.869 110.411 218.302 117.618 216.248C112.803 214.876 100.985 204.823 97.7388 201.808C97.1862 201.294 96.6941 200.837 96.2756 200.464C91.4883 192.745 85.9074 177.814 82.3605 168.323C81.6181 166.337 80.9648 164.589 80.4265 163.196L80.4041 163.603C79.3992 169.14 77.9921 173.982 76.6859 178.477C72.4944 192.901 73.5188 205.001 81.6359 224.955Z" fill="url(#paint0_linear_116_122)" fill-opacity="0.6"/>
</g>
<path fill-rule="evenodd" clip-rule="evenodd" d="M-88.0484 227.812C-89.8274 225.562 -93.8079 222.226 -95.4978 226.879C-95.5878 228.565 -95.9164 231.939 -96.5106 231.951C-97.1048 231.963 -97.3609 238.945 -97.4147 242.435C-98.9999 243.669 -102.179 245.706 -102.214 243.975C-101.58 238.549 -105.716 236.106 -107.5 239.75C-108.392 241.572 -108.522 251.752 -103.169 251.933C-102.178 251.913 -100.052 251.726 -99.4692 251.137C-98.8866 250.548 -94.7602 251.283 -92.7698 251.724C-92.0029 252.911 -89.5136 254.762 -85.6918 252.664C-85.1893 253.015 -83.149 253.48 -79.0068 252.53L-76.7785 252.486C-77.3589 254.422 -78.2881 258.723 -77.362 260.436C-76.9021 261.287 -76.4759 262.59 -76.1292 263.876C-75.5401 266.062 -74.5819 268.155 -73.0106 269.785C-68.6617 274.295 -61.9499 280.462 -57.9941 281.339C-57.0774 281.447 -55.0393 282.503 -51.8871 284.137C-50.6021 284.803 -48.7566 284.883 -46.6926 284.972C-44.2201 285.078 -41.4342 285.198 -38.923 286.356C-37.1092 287.192 -35.1252 286.983 -32.7216 286.731C-30.4871 286.496 -27.89 286.223 -24.7298 286.716C-28.8709 289.617 -27.064 291.693 -25.7372 293.218C-25.554 293.429 -25.38 293.628 -25.232 293.819C-22.602 296.345 -16.3424 301.262 -8.39587 297.349C0.436322 293.001 17.0383 293.365 21.938 293.473L21.9405 293.473C22.55 293.486 22.978 293.496 23.1871 293.492C23.33 293.489 23.7421 293.464 24.3747 293.426C29.2435 293.135 47.1736 292.063 55.9832 294.122C55.9832 294.122 62.323 295.405 66.4371 295.847C68.4517 296.063 70.2038 296.326 71.8245 296.57C77.6345 297.442 81.7546 298.061 90.2213 295.369C103.467 291.159 93.2367 281.768 91.8703 281.15C90.9858 280.751 90.3801 280.471 89.9611 280.278L89.9549 280.276L89.9476 280.272L89.9435 280.27C89.1303 279.896 89.0337 279.851 88.9551 279.872C88.9479 279.874 88.9408 279.877 88.9334 279.88L88.9226 279.884C88.8827 279.9 88.8267 279.922 88.686 279.925C89.6489 279.511 90.9103 279.081 92.3437 278.591C101.019 276.544 123.348 265.465 133.428 260.182C136.487 258.461 140.505 256.201 143.262 253.048C146.047 249.865 150.283 240.06 144.955 226.31C146.569 226.518 150.53 226.415 153.46 224.335C155.441 224.295 159.315 223.568 158.966 220.977C159.29 220.886 159.725 220.815 160.231 220.733C162.606 220.347 166.548 219.706 167.995 215.513C167.201 213.003 159.296 200.401 154.169 204.112C152.773 202.456 150.053 198.998 150.339 198.415C150.696 197.686 146.873 192.35 144.033 198.903C144.188 200.463 144.189 203.781 143.013 203.615C142.503 203.543 142.012 203.395 141.553 203.258C139.998 202.792 138.818 202.438 138.592 205.508L138.621 206.95C136.299 205.604 133.431 203.622 130.649 201.699C126.228 198.643 122.022 195.736 120.563 195.765C116.187 187.553 101.412 155.301 100.272 142.91C99.1316 130.519 93.9394 117.416 91.4859 112.413C90.838 110.983 88.2649 107.426 83.1561 104.641C81.0668 99.2701 75.2337 87.5508 68.6162 83.642C65.0238 81.52 63.9033 76.1712 62.5577 69.7479C61.2275 63.3977 59.6772 55.9975 55.3011 49.627C53.8529 47.5187 52.5904 44.8574 51.2021 41.931C47.434 33.9876 42.7394 24.0912 30.8879 18C28.8608 16.9582 24.2367 16.1127 18.6322 18.2461C16.4987 16.8455 9.91426 17.05 0.644379 29.0725C-8.6255 41.0951 -8.73051 55.604 -7.62427 61.3557C-7.49723 67.683 -11.9959 74.5564 -15.9949 80.6663C-18.3794 84.3096 -20.5863 87.6814 -21.5289 90.5042C-22.9468 93.9007 -24.4751 102.905 -19.2446 111.749C-22.8178 112.663 -30.5076 117.028 -32.6817 127.176C-34.3564 134.993 -34.803 140.73 -35.2079 145.93C-35.4599 149.169 -35.6958 152.199 -36.202 155.394C-37.5209 163.72 -41.8347 189.429 -49.9183 193.921C-52.4582 196.148 -57.5054 204.793 -61.8939 212.309C-63.8136 215.597 -65.6073 218.67 -67.0099 220.894C-69.5448 224.915 -76.9642 232.137 -80.57 230.188C-82.4487 229.143 -86.5745 227.205 -88.0484 227.812ZM-58.8962 236.404C-43.2944 228.874 -33.8638 216.333 -26.6462 205.723C-22.6728 198.266 -16.9859 185.459 -14.011 175.048C-13.744 174.113 -13.4789 173.176 -13.2183 172.256C-12.4061 169.386 -11.6384 166.674 -10.9953 164.67C-9.84981 171.011 -8.23986 175.959 -6.68857 180.727C-4.31021 188.038 -2.06974 194.924 -1.85229 205.755C-1.65235 215.713 -2.3263 231.697 -4.55943 231.501C-6.88192 231.298 -15.0851 232.229 -24.8189 233.335C-36.4724 234.659 -50.3199 236.232 -58.8962 236.404ZM79.486 163.946L79.5087 163.536C80.0513 164.941 80.7099 166.703 81.4583 168.705C85.034 178.272 90.66 193.325 95.4862 201.106C95.9081 201.483 96.4041 201.943 96.9612 202.461C100.234 205.501 112.148 215.635 117.001 217.018C112.47 218.309 102.749 220.586 94.0358 222.627C88.7797 223.859 83.8903 225.004 80.7278 225.795C72.545 205.68 71.5123 193.482 75.7378 178.941C77.0545 174.41 78.4731 169.528 79.486 163.946ZM102.539 199.139C104.206 197.223 109.139 193.866 115.539 195.765C112.539 196.037 105.739 197.091 102.539 199.139ZM48.0391 270.639C68.4391 255.039 90.5374 240.139 114.537 232.639C89.0374 236.639 56.5391 261.139 45.5391 269.639C34.0391 267.139 19.3724 266.368 13.0391 267.139C31.4391 268.339 62.3724 274.972 75.5391 278.139C72.7391 275.73 56.4607 272.18 48.5391 270.639L48.0391 270.639ZM47.0391 122.639C55.439 117.039 66.2057 116.306 70.0391 117.639C64.0047 116.969 54.9735 119.997 49.6563 121.781L49.6552 121.781C48.6285 122.125 47.7404 122.423 47.0391 122.639ZM49.0391 58.1391C48.539 42.431 28.9847 30.6391 19.5391 28.1391C30.0391 33.4501 47.1842 43.6391 47.5391 61.3557C47.6478 66.7835 48.5326 77.8391 51.2021 78.6391C49.3442 77.3114 49.2172 68.7726 49.1188 62.1548L49.1187 62.1538C49.1174 62.0624 49.116 61.9713 49.1147 61.8806C49.0943 60.5179 49.0742 59.2435 49.0391 58.1391ZM49 107C37 91.0001 35 87.9999 38 76C40.8379 64.6483 37.0223 59.2363 34.2554 55.3117C34.1998 55.2329 34.1446 55.1546 34.0899 55.0769C34.0504 55.0208 34.0111 54.9649 33.9721 54.9094C33.6437 54.4413 33.3171 53.9758 33 53.5001C37.7999 60.7001 38.5 69 35.5 79.5C34 84.75 34.3332 88.5 38 94C38.0976 94.1464 38.2237 94.3424 38.3776 94.5812C39.7998 96.7898 43.5856 102.669 49 107ZM54 184.5C71.6 185.3 74 171 74 163C73.927 163.314 73.8527 163.642 73.7757 163.982C72.095 171.401 69.124 184.516 49.9999 182C34.9076 180.014 23.4959 180.493 19.5825 180.989C23.0276 180.562 30.4123 181.599 37.9781 182.661C45 183.647 49.6809 184.304 54 184.5Z" fill="url(#paint1_linear_116_122)"/>
<path fill-rule="evenodd" clip-rule="evenodd" d="M-26.6462 205.723C-33.8638 216.333 -43.2944 228.874 -58.8962 236.404C-50.3199 236.232 -36.4724 234.659 -24.8189 233.335C-15.0851 232.229 -6.88192 231.298 -4.55943 231.501C-2.3263 231.697 -1.65235 215.713 -1.85229 205.755C-2.06974 194.924 -4.31021 188.038 -6.68857 180.727C-8.23986 175.959 -9.84981 171.011 -10.9953 164.67C-11.6384 166.674 -12.4061 169.386 -13.2183 172.256C-13.4789 173.176 -13.744 174.113 -14.011 175.048C-16.9859 185.459 -22.6728 198.266 -26.6462 205.723Z" fill="url(#paint2_linear_116_122)"/>
</g>
<defs>
<filter id="filter0_f_116_122" x="-114.545" y="8.7605" width="291.746" height="297.621" filterUnits="userSpaceOnUse" color-interpolation-filters="sRGB">
<feFlood flood-opacity="0" result="BackgroundImageFix"/>
<feBlend mode="normal" in="SourceGraphic" in2="BackgroundImageFix" result="shape"/>
<feGaussianBlur stdDeviation="4.5" result="effect1_foregroundBlur_116_122"/>
</filter>
<linearGradient id="paint0_linear_116_122" x1="-45.4146" y1="157.17" x2="152.161" y2="311.806" gradientUnits="userSpaceOnUse">
<stop stop-color="#CDABF2"/>
<stop offset="1" stop-color="#3E0B71"/>
</linearGradient>
<linearGradient id="paint1_linear_116_122" x1="115" y1="272.5" x2="0.979678" y2="124.516" gradientUnits="userSpaceOnUse">
<stop stop-color="#CDABF2"/>
<stop offset="1" stop-color="white"/>
</linearGradient>
<linearGradient id="paint2_linear_116_122" x1="115" y1="272.5" x2="0.979678" y2="124.516" gradientUnits="userSpaceOnUse">
<stop stop-color="#CDABF2"/>
<stop offset="1" stop-color="white"/>
</linearGradient>
<clipPath id="clip0_116_122">
<rect width="170" height="284" fill="white" transform="translate(0 14)"/>
</clipPath>
</defs>
</svg>
