<svg width="317" height="317" viewBox="0 0 317 317" fill="none" xmlns="http://www.w3.org/2000/svg">
<g clip-path="url(#clip0_116_105)">
<g filter="url(#filter0_f_116_105)">
<path d="M181.481 274.883C170.129 315.977 178.327 338.059 183.846 343.963L100.483 354C106.159 351.638 107.578 323.888 107.578 310.309C110.416 287.636 86.2941 233.553 73.8785 209.346L50.8209 142.037C41.8343 115.586 50.8209 106.575 56.1419 104.25C71.2771 97.6372 106.396 75.9096 115.264 62.3298C121.413 39.6574 126.224 22.7713 130.636 21C130.242 35.5638 130.636 65.6506 130.636 70.0053C130.636 74.1383 127.997 75.0359 125.041 75.646C120.903 76.5 114.399 80.633 102.848 93.0319C91.5771 105.131 78.8053 121.766 72.1048 127.277C80.1454 142.391 87.6736 164.277 90.4327 173.33C97.0544 204.504 111.717 204.032 118.22 199.899C123.541 196.517 121.436 172.739 118.811 168.606C103.44 144.399 107.578 128.261 112.308 122.553C96.6996 119.247 102.257 106.612 105.213 103.069L118.811 88.8989C130.636 80.0426 140.489 94.2128 139.504 101.298C141.396 97.9915 149.555 98.3796 154.602 101.298C165.835 107.793 172.612 118.027 170.839 123.734C175.568 131.291 173.598 140.66 172.021 144.399C171.893 145.227 171.851 146.015 171.877 146.761L174.977 147.941L172.021 148.228C172.668 152.168 175.289 154.43 176.477 155.617C179.433 158.569 177.069 160.931 173.204 160.931C174.112 167.426 173.204 167.426 170.839 167.426C172.339 168.606 171.233 170.968 170.839 170.968C167.055 170.968 166.109 175.691 166.109 178.053C165.163 185.138 154.679 181.793 149.555 179.234C147.663 191.987 152.314 196.75 154.876 197.537C170.957 199.899 181.678 180.809 185.028 170.968C187.866 145.934 194.488 121.569 197.444 112.516C192.714 111.099 179.313 100.904 173.204 95.984C171.122 93.9055 152.097 82.8329 139.504 75.646C136.274 73.8028 134.774 73.5479 134.774 69.4149V21C139.031 21 144.037 45.4043 146.007 57.6064C148.372 70.3596 185.225 82.2074 203.356 86.5372C229.961 99.5266 220.501 97.7553 222.866 105.431C225.231 113.106 195.67 223.516 181.481 274.883Z" fill="url(#paint0_linear_116_105)" fill-opacity="0.6"/>
</g>
<path fill-rule="evenodd" clip-rule="evenodd" d="M183.846 343.963C178.327 338.059 170.129 315.977 181.481 274.883C195.67 223.516 224.027 113.378 222.866 105.431C222.709 104.353 222.778 103.288 222.847 102.232C223.157 97.4753 223.456 92.8851 203 88C184.869 83.6702 148.372 70.3596 146.007 57.6064C144.037 45.4043 139.031 21 134.774 21V69.4149C134.774 73.0506 135.935 73.6853 138.413 75.0401C138.752 75.2254 139.115 75.4242 139.504 75.646C152.097 82.8329 171.122 93.9055 173.204 95.984C179.313 100.904 193.27 110.583 198 112C195.044 121.053 187.866 145.934 185.028 170.968C181.678 180.809 170.957 199.899 154.876 197.537C152.314 196.75 147.663 191.987 149.555 179.234C154.679 181.793 165.163 185.138 166.109 178.053C166.109 175.691 167.055 170.968 170.839 170.968C171.233 170.968 172.339 168.606 170.839 167.426C173.204 167.426 174.112 167.426 173.204 160.931C177.069 160.931 179.433 158.569 176.477 155.617L176.426 155.566L176.356 155.497L176.292 155.434L176.156 155.301C174.87 154.046 172.614 151.844 172.021 148.228L174.977 147.941L171.877 146.761C171.851 146.015 171.893 145.227 172.021 144.399C173.598 140.66 175.568 131.291 170.839 123.734C172.612 118.027 165.835 107.793 154.602 101.298C149.555 98.3796 141.396 97.9915 139.504 101.298C140.489 94.2128 130.636 80.0426 118.811 88.8989L105.213 103.069C102.257 106.612 96.6996 119.247 112.308 122.553C107.578 128.261 103.44 144.399 118.811 168.606C121.436 172.739 123.541 196.517 118.22 199.899C111.717 204.032 97.0544 204.504 90.4327 173.33C87.6737 164.277 80.1454 142.391 72.1048 127.277C76.0592 124.024 82.1282 116.898 88.7553 109.115C93.3575 103.711 98.2289 97.9905 102.848 93.0319C114.399 80.633 120.903 76.5 125.041 75.646C127.997 75.0359 130.636 74.1383 130.636 70.0053C130.636 69.0917 130.618 67.0454 130.595 64.2473L130.595 64.2448L130.594 64.2269L130.594 64.2143L130.594 64.2095L130.594 64.2022C130.504 53.6487 130.325 32.4919 130.636 21C126.224 22.7713 121.413 39.6574 115.264 62.3298C106.396 75.9096 71.2771 97.6372 56.1419 104.25C50.8209 106.575 41.8343 115.586 50.8209 142.037L73.8785 209.346C86.2941 233.553 110.416 287.636 107.578 310.309C107.578 323.888 106.159 351.638 100.483 354L183.846 343.963ZM201 111C201.833 109.167 206.7 105.4 213.5 105C210.5 106.5 202.6 109.8 201 111ZM70.5 124.5C69 122.667 64.6 119.3 59 120.5C61 120.908 66.1 122.279 70.5 124.5ZM127 115.5C121.5 117 118.333 118.833 117.5 119.5C118.78 119.18 119.996 118.796 121.09 118.45C122.732 117.932 123.716 117.693 125 117.5C135 116 135.333 109.333 135.5 105.5C133.5 113.1 129 114.955 127 115.5ZM171 147C169.333 147.034 164.7 145.68 163.5 144.399C164.333 145.566 168.5 149 171 147ZM107.5 210C116 209.346 120 209 127 212.5C124.167 212 115.9 210.4 107.5 210ZM154 212C156.751 210 165.4 207.2 173 208C167.417 208.833 155.101 211.2 154 212ZM131.986 261.338C128.274 262.208 124.594 263.367 120.785 263.542C107.721 264.141 102.175 259.583 101 256.5C109 263.3 121.333 262.167 126.5 261C135 258.5 143.971 258.75 147.5 259.5C162 262.58 164 263.5 179 256.5C170.089 261.984 163.762 262.925 159.053 262.707C155.334 262.534 151.785 261.116 148.111 260.51C142.673 259.612 136.81 260.207 131.986 261.338Z" fill="url(#paint1_linear_116_105)"/>
</g>
<defs>
<filter id="filter0_f_116_105" x="38" y="12" width="194" height="351" filterUnits="userSpaceOnUse" color-interpolation-filters="sRGB">
<feFlood flood-opacity="0" result="BackgroundImageFix"/>
<feBlend mode="normal" in="SourceGraphic" in2="BackgroundImageFix" result="shape"/>
<feGaussianBlur stdDeviation="4.5" result="effect1_foregroundBlur_116_105"/>
</filter>
<linearGradient id="paint0_linear_116_105" x1="71.2401" y1="93.6223" x2="194.543" y2="331.699" gradientUnits="userSpaceOnUse">
<stop stop-color="#CDABF2"/>
<stop offset="1" stop-color="#3E0B71"/>
</linearGradient>
<linearGradient id="paint1_linear_116_105" x1="104" y1="135.5" x2="237.303" y2="314.147" gradientUnits="userSpaceOnUse">
<stop stop-color="white"/>
<stop offset="1" stop-color="#CDABF2"/>
</linearGradient>
<clipPath id="clip0_116_105">
<rect width="181" height="304" fill="white" transform="translate(43 13)"/>
</clipPath>
</defs>
</svg>
