<svg width="93" height="31" viewBox="0 0 93 31" fill="none" xmlns="http://www.w3.org/2000/svg">
<path d="M10.7718 1.53477H1C8.63423 3.92917 15.047 8.71781 18.406 15.6015L16.2685 5.42554C15.7799 2.07349 12.4004 1.43501 10.7718 1.53477Z" stroke="#3E0B71"/>
<path d="M19.0168 18.5944C16.0852 12.3691 10.8736 8.01946 8.63423 6.62278L14.7416 29.0695H22.9866L34.2852 1.53477H26.651L19.6275 20.9887L19.0168 18.5944Z" stroke="#3E0B71"/>
<path d="M44.9732 1.53477H37.3389L33.0638 29.0695H40.3926L44.9732 1.53477Z" stroke="#3E0B71"/>
<path d="M67.2651 2.13343L66.0436 8.11923C64.0893 6.68262 61.1577 6.3235 59.9362 6.3235C58.4705 6.3235 57.4933 6.72256 56.8826 7.22137C55.0503 8.71782 55.8792 10.5136 57.1879 11.1121C60.8524 12.7881 64.0587 14.4043 64.8222 15.9008C67.2651 20.6894 64.5168 24.2809 63.2953 25.7774C60.8524 28.7703 55.6611 29.7679 53.2181 29.9674C50.2866 30.2068 46.7036 29.0695 45.2785 28.4709L46.5 22.4851C48.943 24.4006 56.8826 25.1787 58.4094 22.4851C59.6309 20.3302 55.6611 18.0879 54.1342 17.3972C50.1644 15.6015 48.6376 12.6086 48.3322 11.1121C47.1306 5.2238 52.2002 2.23314 54.4396 1.53477C57.7987 0.487202 64.415 1.13574 67.2651 2.13343Z" stroke="#3E0B71"/>
<path d="M78.2584 1.23557L66.0436 29.0695H73.3725L74.8993 25.1788H84.3658L85.2819 29.0695H92L86.198 1.23557H78.2584Z" stroke="#3E0B71"/>
</svg>
