<svg width="26" height="26" viewBox="0 0 26 26" fill="none" xmlns="http://www.w3.org/2000/svg">
<path fill-rule="evenodd" clip-rule="evenodd" d="M1 7.06154C1 5.03394 2.2205 1.52424 6.44277 1H19.5842C21.2867 1 25.41 3.02761 25.41 6.63177V19.3485C25.41 22.2973 23.6568 25.0168 19.3048 25.41H7.26743C5.94797 25.41 1 24.0994 1 19.8399V7.06154ZM19.5842 5.00151C19.0996 5.42226 19.0533 6.15422 19.4811 6.63177C19.9423 7.14666 20.753 7.14666 21.2142 6.63177C21.642 6.15422 21.5957 5.42226 21.1112 5.00151C20.674 4.62194 20.0213 4.62194 19.5842 5.00151ZM9.17618 9.65213C7.94938 11.0374 7.52921 12.9571 8.06155 14.7241C9.59081 19.7999 16.8317 19.8652 18.4092 14.8039C18.9741 12.9912 18.5227 11.0076 17.2366 9.60364C15.072 7.24087 11.3004 7.25352 9.17618 9.65213Z" fill="url(#paint0_linear_6_112)"/>
<path d="M8.06155 14.7241C7.52921 12.9571 7.94938 11.0374 9.17618 9.65213C11.3004 7.25352 15.072 7.24087 17.2366 9.60364C18.5227 11.0076 18.9741 12.9912 18.4092 14.8039C16.8317 19.8652 9.59081 19.7999 8.06155 14.7241Z" fill="url(#paint1_linear_6_112)"/>
<path fill-rule="evenodd" clip-rule="evenodd" d="M1 7.06154C1 5.03394 2.2205 1.52424 6.44277 1H19.5842C21.2867 1 25.41 3.02761 25.41 6.63177V19.3485C25.41 22.2973 23.6568 25.0168 19.3048 25.41H7.26743C5.94797 25.41 1 24.0994 1 19.8399V7.06154ZM19.5842 5.00151C19.0996 5.42226 19.0533 6.15422 19.4811 6.63177C19.9423 7.14666 20.753 7.14666 21.2142 6.63177C21.642 6.15422 21.5957 5.42226 21.1112 5.00151C20.674 4.62194 20.0213 4.62194 19.5842 5.00151ZM9.17618 9.65213C7.94938 11.0374 7.52921 12.9571 8.06155 14.7241C9.59081 19.7999 16.8317 19.8652 18.4092 14.8039C18.9741 12.9912 18.5227 11.0076 17.2366 9.60364C15.072 7.24087 11.3004 7.25352 9.17618 9.65213Z" stroke="#AA70E9" stroke-width="1.10577"/>
<path d="M8.06155 14.7241C7.52921 12.9571 7.94938 11.0374 9.17618 9.65213C11.3004 7.25352 15.072 7.24087 17.2366 9.60364C18.5227 11.0076 18.9741 12.9912 18.4092 14.8039C16.8317 19.8652 9.59081 19.7999 8.06155 14.7241Z" stroke="#AA70E9" stroke-width="1.10577"/>
<defs>
<linearGradient id="paint0_linear_6_112" x1="8.21205" y1="4.88341" x2="19.8623" y2="25.41" gradientUnits="userSpaceOnUse">
<stop stop-color="white"/>
<stop offset="1" stop-color="white" stop-opacity="0"/>
</linearGradient>
<linearGradient id="paint1_linear_6_112" x1="8.21205" y1="4.88341" x2="19.8623" y2="25.41" gradientUnits="userSpaceOnUse">
<stop stop-color="white"/>
<stop offset="1" stop-color="white" stop-opacity="0"/>
</linearGradient>
</defs>
</svg>
