<svg width="122" height="122" viewBox="0 0 122 122" fill="none" xmlns="http://www.w3.org/2000/svg">
<path d="M33.74 87.97V36.8554C33.74 35.493 34.91 34.4189 36.2571 34.6219C60.5024 38.2754 83.5643 63.139 56.7161 84.4996C55.2595 85.6585 53.17 84.556 53.17 82.6946V56.65M88.26 87.97V36.8547C88.26 35.4925 87.0909 34.4189 85.7428 34.6138C78.2726 35.6941 70.8908 38.6026 64.77 42.7458M119 61C119 93.0325 93.0325 119 61 119C28.9675 119 3 93.0325 3 61C3 28.9675 28.9675 3 61 3C93.0325 3 119 28.9675 119 61Z" stroke="url(#paint0_linear_6_87)" stroke-opacity="0.8" stroke-width="5.8"/>
<defs>
<linearGradient id="paint0_linear_6_87" x1="34.9" y1="74.05" x2="113.49" y2="22.72" gradientUnits="userSpaceOnUse">
<stop stop-color="#3E0B71"/>
<stop offset="1" stop-color="#C315DF"/>
</linearGradient>
</defs>
</svg>
