<svg width="56" height="33" viewBox="0 0 56 33" fill="none" xmlns="http://www.w3.org/2000/svg">
<path d="M20.5116 15.2059C17.907 14.2353 16.1351 16.2667 17.907 17.1471M34.186 16.1765C33.7519 17.1471 33.5349 19.9294 37.4419 19.4118M52.0028 15.9944C51.1107 15.0573 49.616 14.3051 48.5116 16.5M39.0698 32.5C35.1908 32.5 31.723 31.0962 28.9996 28.8141C30.9483 26.906 32.4318 24.5175 33.3563 21.8396L32.4111 21.5133C31.5265 24.0755 30.1067 26.3461 28.2511 28.1473C26.3227 26.3218 24.8287 24.034 23.9119 21.506L22.9718 21.8469C23.9322 24.4952 25.4925 26.8965 27.5096 28.8221C24.8182 31.1169 21.3232 32.5 17.2558 32.5C7.98049 32.5 0.5 25.3157 0.5 16.5C0.5 7.68431 7.98049 0.5 17.2558 0.5C21.1645 0.5 24.6404 1.86737 27.3783 4.09763C25.2561 6.0342 23.6079 8.46444 22.6329 11.1531L23.5729 11.494C24.5046 8.92522 26.0914 6.60059 28.1395 4.75728C30.2181 6.67182 31.8043 9.10971 32.7367 11.8102L33.6819 11.4839C32.7101 8.66905 31.0655 6.1215 28.9077 4.10589C31.7073 1.87067 35.2369 0.5 39.0698 0.5C48.1561 0.5 55.5 7.6755 55.5 16.5C55.5 25.3245 48.1561 32.5 39.0698 32.5ZM4.55814 13.4118H4.17332L4.0748 13.7838L2.44689 19.9308L3.41357 20.1868L4.94296 14.4118H5.06361L5.36134 19.4413L5.38919 19.9118H5.86046H6.51163H6.82807L6.96352 19.6258L9.43272 14.4118H9.80157L8.62714 19.9552L9.60542 20.1625L10.9077 14.0154L11.0356 13.4118H10.4186H9.11628H8.79983L8.66439 13.6978L6.31657 18.6554L6.03401 13.8822L6.00616 13.4118H5.53488H4.55814ZM14.4461 14.7206L14.3868 14.7059H14.3256H12.0465V15.7059H14.2537C14.3719 15.7475 14.5416 15.8467 14.6682 16.0231C14.7596 16.1505 14.8432 16.3384 14.8524 16.6138C14.4279 16.5972 13.9559 16.6095 13.5083 16.649C12.8915 16.7035 12.2399 16.8162 11.824 17.0228C11.6842 17.0923 11.583 17.2036 11.5185 17.2866C11.4464 17.3796 11.3817 17.4882 11.3265 17.6028C11.2164 17.8312 11.1266 18.1197 11.1006 18.4274C11.0746 18.7353 11.1107 19.0879 11.2829 19.4173C11.4597 19.7558 11.7596 20.0299 12.1874 20.1999C12.3573 20.2675 12.5676 20.2885 12.7719 20.2837C12.9879 20.2786 13.2392 20.2437 13.5102 20.1686C13.7193 20.1108 13.9419 20.0286 14.1706 19.9165L14.1632 19.9497L15.1391 20.1679L15.4285 18.8738L15.7903 17.2562L15.7904 17.2562L15.7925 17.2457C15.9471 16.4774 15.7924 15.8746 15.4807 15.4401C15.181 15.0225 14.7644 14.7997 14.4461 14.7206ZM14.6866 17.6091L14.4864 18.5044C14.0482 18.8965 13.6053 19.1047 13.2435 19.2049C13.0469 19.2593 12.8773 19.2809 12.7485 19.284C12.6305 19.2867 12.5705 19.2735 12.5585 19.2708C12.5562 19.2703 12.5556 19.2702 12.5568 19.2707C12.3334 19.1819 12.2264 19.0637 12.1692 18.9543C12.1073 18.8358 12.0824 18.6849 12.0971 18.5116C12.1117 18.338 12.1644 18.1675 12.2273 18.037C12.2584 17.9724 12.2877 17.9267 12.3084 17.9C12.5561 17.7907 13.0241 17.6957 13.5963 17.6451C13.9637 17.6127 14.3437 17.601 14.6866 17.6091ZM12.3241 17.8817C12.3241 17.8818 12.3231 17.8828 12.3212 17.8845C12.3231 17.8825 12.3241 17.8816 12.3241 17.8817ZM22.3019 17.9032L22.302 17.9033L22.3041 17.8928L22.7806 15.5253H23.7674V14.5253H22.9819L23.2809 13.0398L22.3005 12.8425L21.881 14.9267L21.3248 17.6904C21.2607 17.9799 21.2346 18.314 21.2583 18.6384C21.2818 18.9597 21.3571 19.3108 21.5277 19.6056C21.706 19.9136 22.0046 20.18 22.4418 20.2291C22.8507 20.2751 23.2811 20.118 23.718 19.8286L23.1657 18.9949C22.8212 19.2231 22.6302 19.244 22.5535 19.2354C22.505 19.2299 22.4537 19.2092 22.3932 19.1047C22.3251 18.987 22.2728 18.8003 22.2556 18.5654C22.2388 18.3359 22.2584 18.0978 22.3019 17.9032ZM28.6512 17.6471H29.0922L29.1472 17.2095C29.2088 16.7198 29.1807 15.9687 28.8354 15.3503C28.6568 15.0306 28.3887 14.7394 28.0034 14.5548C27.6194 14.3708 27.1592 14.3118 26.6274 14.3873C25.5892 14.5347 24.8995 15.006 24.4753 15.5679C24.0624 16.115 23.9186 16.7244 23.9186 17.1471C23.9186 18.0259 24.1481 18.984 24.9713 19.5818C25.7813 20.17 27.0191 20.299 28.7629 19.8991L28.5394 18.9244C26.8972 19.301 26.0187 19.1065 25.5589 18.7726C25.2194 18.5261 25.026 18.1418 24.9528 17.6471H28.6512ZM28.1696 16.6471H25.0156C25.0712 16.493 25.1543 16.3283 25.2735 16.1703C25.5331 15.8264 25.9829 15.4888 26.7679 15.3774C27.1478 15.3235 27.4011 15.3751 27.5713 15.4566C27.7402 15.5375 27.8668 15.6669 27.9623 15.8379C28.0929 16.0718 28.1547 16.3669 28.1696 16.6471ZM20.6862 14.7374C19.2522 14.203 17.9488 14.4615 17.232 15.1121C16.8737 15.4374 16.6332 15.898 16.7051 16.406C16.7779 16.9196 17.1476 17.3281 17.6845 17.5948C17.928 17.7158 18.2031 17.8073 18.4346 17.8842C18.4723 17.8967 18.5088 17.9089 18.5438 17.9207C18.8198 18.0138 19.0159 18.0904 19.151 18.1834C19.2652 18.2619 19.3016 18.3272 19.3124 18.4126C19.3272 18.5301 19.3007 18.7648 19.0882 19.187C19.0812 19.201 19.0382 19.2673 18.8307 19.3155C18.63 19.3622 18.3563 19.3706 18.042 19.3421C17.4076 19.2844 16.7597 19.0922 16.5015 18.964L16.0566 19.8595C16.4496 20.0548 17.2237 20.2719 17.9515 20.338C18.3182 20.3713 18.7106 20.3702 19.0572 20.2896C19.3971 20.2105 19.7826 20.0318 19.9815 19.6365C20.232 19.1388 20.3555 18.691 20.3045 18.2873C20.2495 17.8514 20.0042 17.5564 19.7177 17.3594C19.4523 17.1769 19.1288 17.0627 18.8634 16.9731C18.8212 16.9589 18.7801 16.9452 18.7401 16.9318C18.5041 16.853 18.3049 16.7865 18.1294 16.6993C17.7804 16.5258 17.7072 16.3503 17.6952 16.2657C17.6825 16.1756 17.7154 16.0239 17.9042 15.8526C18.2815 15.5101 19.1664 15.2382 20.337 15.6744L20.6862 14.7374ZM30.4379 14.4714L30.1123 16.3047L29.4612 19.9714L30.4458 20.1463L31.0629 16.6711C31.3115 16.4962 31.7065 16.2755 32.125 16.082C32.3722 15.9677 32.6131 15.8697 32.8174 15.8014C33.0374 15.7278 33.1657 15.7059 33.2093 15.7059V14.7059C32.9924 14.7059 32.7328 14.7753 32.5003 14.853C32.2522 14.9359 31.9762 15.0491 31.7053 15.1743C31.5688 15.2374 31.4297 15.3054 31.2929 15.3762L31.4225 14.6463L30.4379 14.4714ZM38.7174 13.8344C38.1789 13.4331 37.2931 13.1423 36.3407 13.3871C35.3679 13.637 34.4248 14.418 33.7296 15.9723C33.4757 16.54 33.2688 17.6451 33.7397 18.5776C33.9852 19.0636 34.405 19.479 35.0425 19.7271C35.6683 19.9706 36.4786 20.0438 37.5075 19.9074L37.3762 18.9161C36.4517 19.0386 35.824 18.9581 35.4051 18.7952C34.9981 18.6368 34.7668 18.393 34.6324 18.1268C34.3435 17.5549 34.4622 16.7836 34.6425 16.3806C35.2496 15.0231 35.9886 14.51 36.5896 14.3556C37.2107 14.196 37.7901 14.3905 38.1198 14.6362L38.7174 13.8344ZM39.377 15.5118C40.1347 15.332 41.1314 15.2422 41.7795 15.4521C42.0882 15.5521 42.2491 15.6963 42.32 15.8651C42.3778 16.0025 42.4075 16.2301 42.3112 16.5937C41.6885 16.5217 40.9077 16.5013 40.2302 16.6412C39.81 16.728 39.375 16.8871 39.05 17.1848C38.7012 17.5043 38.5187 17.9487 38.5722 18.4903C38.6225 19 38.839 19.399 39.2034 19.6547C39.5478 19.8964 39.9636 19.9668 40.3432 19.9653C40.7437 19.9637 41.1658 19.8816 41.5528 19.7677L41.512 19.9497L42.4879 20.1679L42.7309 19.0813L43.1304 17.2949C43.4025 16.6018 43.4564 15.988 43.242 15.4777C43.0194 14.9481 42.561 14.6541 42.0876 14.5007C41.1714 14.204 39.9523 14.3475 39.1461 14.5389L39.377 15.5118ZM40.4324 17.6206C40.9261 17.5186 41.5241 17.5215 42.044 17.571L41.81 18.6172C41.3656 18.8016 40.8042 18.9634 40.3392 18.9653C40.069 18.9664 39.8874 18.913 39.7777 18.8361C39.688 18.7732 39.5937 18.6588 39.5673 18.392C39.5441 18.1572 39.6137 18.0246 39.7255 17.9222C39.8611 17.7979 40.0952 17.6902 40.4324 17.6206ZM44.7614 14.1607L44.4368 16.3111L43.7868 19.9714L44.7714 20.1463L45.3901 16.6623C45.6956 16.4167 46.0954 16.119 46.4966 15.8847C46.73 15.7484 46.9505 15.6415 47.1436 15.577C47.344 15.51 47.4704 15.5038 47.5364 15.5164L47.7245 14.5343C47.4171 14.4754 47.1007 14.5369 46.8266 14.6285C46.5451 14.7226 46.2593 14.8653 45.9924 15.0212C45.8616 15.0975 45.7322 15.1789 45.6064 15.2624L45.7502 14.3099L44.7614 14.1607ZM52.5779 12.8512L52.1112 15.402C51.7407 15.0667 51.2916 14.7716 50.7955 14.6414C50.3284 14.5188 49.8164 14.543 49.3208 14.8199C48.8371 15.0902 48.4181 15.5734 48.065 16.2753C47.7189 16.9631 47.5796 17.5753 47.6295 18.1116C47.6804 18.659 47.9252 19.0869 48.2675 19.392C48.9443 19.9953 49.761 19.9633 50.4646 19.7343C50.7813 19.6312 51.0956 19.4826 51.3951 19.3157L51.2756 19.9688L52.2593 20.1488L52.5849 18.3694L52.9104 16.59L53.5616 13.0312L52.5779 12.8512ZM50.5417 15.6086C51.0315 15.7372 51.5332 16.1739 51.8876 16.624L51.6385 17.9852C51.1494 18.3176 50.6378 18.6263 50.1551 18.7834C49.6276 18.9551 49.2377 18.9173 48.9329 18.6455C48.7696 18.5 48.6515 18.3017 48.6252 18.019C48.5979 17.7252 48.6671 17.3033 48.9583 16.7247C49.2563 16.1325 49.5563 15.8339 49.8085 15.6929C50.0489 15.5587 50.2898 15.5425 50.5417 15.6086Z" stroke="#3E0B71"/>
</svg>
