<svg width="104" height="31" viewBox="0 0 104 31" fill="none" xmlns="http://www.w3.org/2000/svg">
<path d="M1 1V30H10.386V12.6518L15.9668 30H23.3234L28.6506 12.6518V30H37.7829V1H27.1285C23.3234 1 23.3234 6.95536 19.2646 18.0893C15.8146 5.66071 15.9668 1 11.147 1H1Z" stroke="#3E0B71"/>
<path d="M50.7203 1H41.3343V30H50.7203C56.1997 27.5143 56.8085 18.0893 60.8673 12.9107V30H70.5069V1H60.6136C55.7938 3.58929 55.7938 10.0625 50.7203 18.0893V1Z" stroke="#3E0B71"/>
<path d="M95.6207 1H72.5363C73.754 8.87143 81.1613 11.7024 84.7127 12.3929H102.977C103.383 4.52143 98.2421 1.69048 95.6207 1Z" stroke="#3E0B71"/>
<path d="M74.0584 29.7411V13.9464H102.724C100.897 19.5393 94.8597 20.9375 92.323 20.9375H83.4443V29.7411H74.0584Z" stroke="#3E0B71"/>
</svg>
