<svg width="63" height="33" viewBox="0 0 63 33" fill="none" xmlns="http://www.w3.org/2000/svg">
<path d="M1 7.64286V25.0804M1 7.64286L12.1652 14.2626M1 7.64286L4.8125 14.2857M1 25.0804L12.1652 18.7143M1 25.0804L4.8125 18.9911M12.1652 18.7143V32M12.1652 18.7143L8.625 16.6845M12.1652 18.7143L16.25 21.235M12.1652 32L27.1429 23.1429M12.1652 32L16.25 25.6339M27.1429 23.1429L16.25 16.6845M27.1429 23.1429L19.7902 23.4196M12.1652 14.2626V1M12.1652 14.2626L16.25 16.6845M12.1652 1L16.25 7.64286M12.1652 1L27.1429 10.1339M16.25 7.64286L19.7902 10.1339M16.25 7.64286V12.1637M16.25 16.6845L27.1429 10.1339M16.25 16.6845V12.1637M27.1429 10.1339H19.7902M19.7902 10.1339L16.25 12.1637M4.8125 14.2857V18.9911M4.8125 14.2857L8.625 16.6845M4.8125 18.9911L8.625 16.6845M19.7902 23.4196L16.25 25.6339M19.7902 23.4196L16.25 21.235M16.25 25.6339V21.235M35.0402 15.3929L36.6741 12.9018C32.9161 10.0232 29.5 12 28.5045 13.1786C27.6672 14.1698 27.0148 15.3929 27.0148 17.0536C26.9092 18.5525 27.372 20.0631 28.7768 21.2054C30.3253 22.4645 34.2777 22.9768 36.6741 21.2054L35.0402 18.7143C33.497 19.3601 30.3563 19.9321 30.1384 17.0536C30.1384 15.6696 31.3366 13.4 35.0402 15.3929ZM49.4732 8.19643L47.8393 11.2411H44.2991C43.5729 11.3333 42.0116 12.0161 41.5759 14.0089C41.939 13.5476 43.2098 12.9018 44.8438 12.9018C46.5685 12.994 49.9089 14.0089 49.4732 17.3304C49.0899 20.2521 47.5125 22.8107 44.0268 22.5893C41.5759 22.5893 37.7634 20.375 38.0357 15.9464C38.1213 14.5545 38.3089 12.2423 39.7873 10.482C42.0027 7.844 46.0283 8.19643 49.4732 8.19643V8.19643ZM51.1071 11.7946H62V22.3125H58.1875V14.8393H54.9196V22.3125H51.1071V11.7946ZM42.7518 19.1663V19.1663C43.3703 19.5705 44.1605 19.6151 44.8192 19.2803V19.2803C46.3638 18.4954 46.3034 16.2675 44.7244 15.5542V15.5542C44.1172 15.2799 43.4125 15.3147 42.8363 15.6493V15.6493C41.5081 16.4208 41.466 18.3262 42.7518 19.1663Z" stroke="#3E0B71"/>
</svg>
